{
  "accessors": [
    {
      "bufferView": 2,
      "componentType": 5126,
      "count": 22554,
      "max": [
        37.34918975830078,
        5.7220458984375e-06,
        41.33259963989258
      ],
      "min": [
        -37.296382904052734,
        -79.82707977294922,
        -40.22236633300781
      ],
      "type": "VEC3"
    },
    {
      "bufferView": 2,
      "byteOffset": 270648,
      "componentType": 5126,
      "count": 22554,
      "max": [
        1.0,
        1.0,
        1.0
      ],
      "min": [
        -1.0,
        -1.0,
        -1.0
      ],
      "type": "VEC3"
    },
    {
      "bufferView": 3,
      "componentType": 5126,
      "count": 22554,
      "max": [
        1.0,
        1.0,
        1.0,
        1.0
      ],
      "min": [
        -1.0,
        -1.0,
        -1.0,
        -1.0
      ],
      "type": "VEC4"
    },
    {
      "bufferView": 1,
      "componentType": 5126,
      "count": 22554,
      "max": [
        0.994968831539154,
        0.995522677898407
      ],
      "min": [
        0.0026485342532396317,
        0.004268378019332886
      ],
      "type": "VEC2"
    },
    {
      "bufferView": 1,
      "byteOffset": 180432,
      "componentType": 5126,
      "count": 22554,
      "max": [
        0.994968831539154,
        0.995522677898407
      ],
      "min": [
        0.0026485342532396317,
        0.004268378019332886
      ],
      "type": "VEC2"
    },
    {
      "bufferView": 0,
      "componentType": 5125,
      "count": 79032,
      "type": "SCALAR"
    },
    {
      "bufferView": 2,
      "byteOffset": 541296,
      "componentType": 5126,
      "count": 288,
      "max": [
        28.875572204589844,
        -41.13002014160156,
        32.95063781738281
      ],
      "min": [
        -28.826671600341797,
        -48.515506744384766,
        -31.86379623413086
      ],
      "type": "VEC3"
    },
    {
      "bufferView": 2,
      "byteOffset": 544752,
      "componentType": 5126,
      "count": 288,
      "max": [
        1.0,
        0.8252114653587341,
        1.0
      ],
      "min": [
        -1.0,
        -0.293070912361145,
        -1.0
      ],
      "type": "VEC3"
    },
    {
      "bufferView": 1,
      "byteOffset": 360864,
      "componentType": 5126,
      "count": 288,
      "max": [
        0.0,
        0.0
      ],
      "min": [
        0.0,
        0.0
      ],
      "type": "VEC2"
    },
    {
      "bufferView": 0,
      "byteOffset": 316128,
      "componentType": 5125,
      "count": 1548,
      "type": "SCALAR"
    }
  ],
  "asset": {
    "extras": {
      "author": "Prince Obrymec (https://sketchfab.com/prince-obrymec)",
      "license": "SKETCHFAB Standard (https://sketchfab.com/licenses)",
      "source": "https://sketchfab.com/3d-models/lamp-19-fe07edcfe7504d85924d8a7ae5de85c8",
      "title": "Lamp 19"
    },
    "generator": "Sketchfab-16.68.0",
    "version": "2.0"
  },
  "bufferViews": [
    {
      "buffer": 0,
      "byteLength": 322320,
      "name": "floatBufferViews",
      "target": 34963
    },
    {
      "buffer": 0,
      "byteLength": 363168,
      "byteOffset": 322320,
      "byteStride": 8,
      "name": "floatBufferViews",
      "target": 34962
    },
    {
      "buffer": 0,
      "byteLength": 548208,
      "byteOffset": 685488,
      "byteStride": 12,
      "name": "floatBufferViews",
      "target": 34962
    },
    {
      "buffer": 0,
      "byteLength": 360864,
      "byteOffset": 1233696,
      "byteStride": 16,
      "name": "floatBufferViews",
      "target": 34962
    }
  ],
  "buffers": [
    {
      "byteLength": 1594560,
      "uri": "scene.bin"
    }
  ],
  "images": [
    {
      "uri": "textures/body_baseColor.jpeg"
    },
    {
      "uri": "textures/body_metallicRoughness.png"
    },
    {
      "uri": "textures/body_normal.png"
    }
  ],
  "materials": [
    {
      "doubleSided": true,
      "name": "body",
      "normalTexture": {
        "index": 2
      },
      "pbrMetallicRoughness": {
        "baseColorTexture": {
          "index": 0
        },
        "metallicRoughnessTexture": {
          "index": 1
        }
      }
    },
    {
      "doubleSided": true,
      "name": "lamp",
      "pbrMetallicRoughness": {
        "baseColorFactor": [
          0.8,
          0.8,
          0.8,
          1.0
        ],
        "metallicFactor": 0.0,
        "roughnessFactor": 0.791804327265893
      }
    }
  ],
  "meshes": [
    {
      "name": "lamp_19_body_0",
      "primitives": [
        {
          "attributes": {
            "NORMAL": 1,
            "POSITION": 0,
            "TANGENT": 2,
            "TEXCOORD_0": 3,
            "TEXCOORD_1": 4
          },
          "indices": 5,
          "material": 0,
          "mode": 4
        }
      ]
    },
    {
      "name": "lamp_19_lamp_0",
      "primitives": [
        {
          "attributes": {
            "NORMAL": 7,
            "POSITION": 6,
            "TEXCOORD_0": 8
          },
          "indices": 9,
          "material": 1,
          "mode": 4
        }
      ]
    }
  ],
  "nodes": [
    {
      "children": [
        1
      ],
      "matrix": [
        1.0,
        0.0,
        0.0,
        0.0,
        0.0,
        2.220446049250313e-16,
        -1.0,
        0.0,
        0.0,
        1.0,
        2.220446049250313e-16,
        0.0,
        0.0,
        0.0,
        0.0,
        1.0
      ],
      "name": "Sketchfab_model"
    },
    {
      "children": [
        2
      ],
      "matrix": [
        0.009999999776482582,
        0.0,
        0.0,
        0.0,
        0.0,
        0.0,
        0.009999999776482582,
        0.0,
        0.0,
        -0.009999999776482582,
        0.0,
        0.0,
        0.0,
        0.0,
        0.0,
        1.0
      ],
      "name": "2638b38de51b40d09c539f7b167702f4.fbx"
    },
    {
      "children": [
        3
      ],
      "name": "RootNode"
    },
    {
      "children": [
        4,
        5
      ],
      "matrix": [
        1.0,
        0.0,
        0.0,
        0.0,
        0.0,
        0.999999999999999,
        4.371138828673792e-08,
        0.0,
        0.0,
        -4.371138828673792e-08,
        0.999999999999999,
        0.0,
        0.0,
        99.81295013427734,
        0.0,
        1.0
      ],
      "name": "lamp_19"
    },
    {
      "mesh": 0,
      "name": "lamp_19_body_0"
    },
    {
      "mesh": 1,
      "name": "lamp_19_lamp_0"
    }
  ],
  "samplers": [
    {
      "magFilter": 9729,
      "minFilter": 9987,
      "wrapS": 10497,
      "wrapT": 10497
    }
  ],
  "scene": 0,
  "scenes": [
    {
      "name": "Sketchfab_Scene",
      "nodes": [
        0
      ]
    }
  ],
  "textures": [
    {
      "sampler": 0,
      "source": 0
    },
    {
      "sampler": 0,
      "source": 1
    },
    {
      "sampler": 0,
      "source": 2
    }
  ]
}
